<svg width="2500" height="415" viewBox="0 0 954.1 158.2" xmlns="http://www.w3.org/2000/svg" xmlns:xlink="http://www.w3.org/1999/xlink" id="Layer_1" overflow="hidden"><g id="Layer_2_1_" transform="matrix(1 0 0 1 0 -33.561)"><g id="Layer_1-2"><path d="M158.6 154.2 158.6 187.5C158.6 191.4 157.4 192.2 153.7 191.6 128.9 187.9 103.8 184.5 78.8 181 74.3 180.4 72.7 178.8 72.7 173.9 73.1 156.2 72.9 138.4 72.7 120.5 72.7 116.6 73.9 115.4 77.8 115.4 103.4 115.6 128.6 115.6 153.7 115.6 157.8 115.6 158.8 117.2 158.8 120.9 158.4 132.1 158.6 143.1 158.6 154.2Z" id="path6" fill="#00AAF2"/><path d="M116.1 109.2C103.5 109.2 90.9 109 78.3 109.2 74.4 109.2 72.8 108.4 72.8 103.9 73 85.8 73 68 72.8 50.1 72.8 46.6 74 45.4 77.3 44.8 103.1 41.1 128.9 37.5 154.7 33.6 159.2 33 158.4 36 158.4 38.5 158.4 54.5 158.6 70.8 158.4 86.8 158.4 92.7 158.2 98.6 158.4 104.5 158.6 108.2 157.2 109.2 153.7 109.2 141.3 109 128.7 109.2 116.1 109.2Z" id="path8" fill="#00AAF2"/><path d="M32.7 115.9 60.9 115.9C63.9 115.9 65.2 116.9 65.2 120L65.2 175.6C65.2 178.8 63.8 179.1 60.9 178.8 42.2 176 23.5 173.3 4.9 170.7 1.2 170.1 5.32907e-15 168.9 5.32907e-15 165 0.2 150.2 0.2 135.4 5.32907e-15 120.3 5.32907e-15 116.6 1 115.6 4.7 115.6 14.2 115.9 23.3 115.9 32.7 115.9Z" id="path10" fill="#00AAF2"/><path d="M32.7 109.2 4.9 109.2C1.4 109.2 0.2 108 0.2 104.3 0.4 89.7 0.4 75.1 0.2 60.4 0.2 56.9 1.2 55.7 4.9 55.1 23.6 52.7 42.3 50 60.9 47 65.2 46.4 65.6 47.8 65.6 51.3L65.6 104.5C65.6 108.4 64 109 60.5 109 51.2 109 41.8 109.2 32.7 109.2Z" id="path12" fill="#00AAF2"/><path d="M228.8 64.7C228.6 61.7 228.4 57.8 228.4 55L228.2 55C227.6 57.6 226.4 60.7 225.4 63.7L221.5 74.5 219.3 74.5 215.8 63.9C214.8 61.1 214 58 213.2 55.2 213 57.8 213 61.7 212.8 65.1L212.2 74.6 209.6 74.6 211.2 52.1 214.9 52.1 218.8 63.1C219.8 65.7 220.4 68.4 221 70.8L221.2 70.8C221.8 68.6 222.6 65.9 223.6 63.1L227.7 52.1 231.4 52.1 232.8 74.6 229.6 74.6 228.8 64.7Z" id="path14" fill="#00AAF2"/><path d="M240.4 53.9C240.4 54.9 239.6 55.7 238.6 55.7L238.4 55.7C237.4 55.7 236.6 54.9 236.6 53.9 236.6 52.9 237.4 52.1 238.4 52.1 239.6 52.1 240.4 52.9 240.4 53.9ZM237.2 74.7 237.2 58.7 240.2 58.7 240.2 74.7 237.2 74.7Z" id="path16" fill="#00AAF2"/><path d="M256.4 74C255 74.6 253.4 75 251.7 75 246.8 75 243.6 71.8 243.6 66.7 243.4 62 246.8 58.2 251.5 58L252.3 58C253.7 58 255.1 58.2 256.4 58.8L255.8 61C254.8 60.6 253.6 60.2 252.3 60.4 248.6 60.4 246.6 63 246.6 66.5 246.6 70.4 249 72.6 252.3 72.6 253.5 72.6 254.7 72.4 255.8 71.8L256.4 74Z" id="path18" fill="#00AAF2"/><path d="M259.7 63.5C259.7 61.7 259.5 60 259.5 58.6L262.1 58.6 262.3 61.8 262.5 61.8C263.1 59.8 264.9 58.3 267 58.3 267.2 58.3 267.6 58.3 267.8 58.5L267.8 61.1C267.6 60.9 267.2 60.9 266.8 60.9 264.8 60.9 263.3 62.5 262.9 64.8 262.9 65.2 262.7 65.6 262.7 66L262.7 74.7 259.9 74.7 259.7 63.5Z" id="path20" fill="#00AAF2"/><path d="M285.1 66.5C285.3 70.8 282.1 74.6 277.8 74.8L277.2 74.8C272.9 74.8 269.5 71.6 269.5 66.5 269.5 61 273.2 58 277.6 58 281.6 58 285.1 61.5 285.1 66.5ZM272.3 66.5C272.3 69.7 273.9 72.6 277.2 72.6 280.4 72.6 282.1 69.6 282.1 66.5 282.1 63.7 280.9 60.2 277.2 60.2 273.3 60.4 272.3 63.7 272.3 66.5Z" id="path22" fill="#00AAF2"/><path d="M288.3 71.6C289.5 72.4 290.7 72.8 292.2 72.8 294.2 72.8 295.2 71.8 295.2 70.4 295.2 69.2 294.4 68.4 292.2 67.4 289.4 66.4 287.9 64.8 287.9 62.7 287.9 60.1 289.9 58 293.4 58 294.8 58 296.2 58.4 297.5 59L296.9 61C295.9 60.4 294.7 60 293.7 60 292.3 59.8 291.1 60.8 291.1 62.2 291.1 63.4 292.1 64 294.1 64.8 296.7 65.8 298.4 67.2 298.4 69.7 298.4 72.5 296.2 74.6 292.3 74.6 290.7 74.6 289.3 74.2 287.8 73.4L288.3 71.6Z" id="path24" fill="#00AAF2"/><path d="M316.5 66.5C316.7 70.8 313.5 74.6 309.2 74.8L308.6 74.8C304.3 74.8 300.9 71.6 300.9 66.5 300.9 61 304.6 58 309 58 313.1 58 316.5 61.5 316.5 66.5ZM303.8 66.5C303.8 69.7 305.4 72.6 308.7 72.6 312 72.6 313.6 69.6 313.6 66.5 313.6 63.7 312.4 60.2 308.7 60.2 305 60.2 303.8 63.7 303.8 66.5Z" id="path26" fill="#00AAF2"/><path d="M320.4 74.7 320.4 60.7 318.2 60.7 318.2 58.5 320.4 58.5 320.4 57.7C320.2 55.7 320.8 53.6 322.2 52 323.2 51 324.6 50.4 326.1 50.4 326.9 50.4 327.7 50.6 328.5 50.8L328.1 53C327.5 52.8 326.9 52.6 326.3 52.6 323.9 52.6 323.3 54.8 323.3 57.3L323.3 58.3 327.2 58.3 327.2 60.5 323.3 60.5 323.3 74.3 320.4 74.7Z" id="path28" fill="#00AAF2"/><path d="M333.8 53.7 333.8 58.4 338.1 58.4 338.1 60.6 333.8 60.6 333.8 69.3C333.8 71.3 334.4 72.3 336 72.3 336.6 72.3 337.2 72.3 337.6 72.1L337.8 74.3C337 74.7 336.2 74.7 335.2 74.7 334 74.7 333 74.3 332 73.5 331.2 72.3 330.8 70.7 331 69.2L331 60.3 328.6 60.3 328.6 58.1 331 58.1 331 54.2 333.8 53.7Z" id="path30" fill="#00AAF2"/><path d="M227 135.8 219.3 159.6 209.1 159.6 234.9 84 246.5 84 272.3 159.5 261.9 159.5 253.8 135.7 227 135.7ZM251.8 128.3 244.5 106.6C242.9 101.7 241.7 97.1 240.6 92.8L240.2 92.8C239.2 97.3 238 101.9 236.5 106.4L229.2 128.3 251.8 128.3Z" id="path32" fill="#00AAF2"/><path d="M320.2 157.7C315.3 159.9 310 160.9 304.6 160.9 288.4 160.9 277.6 149.7 277.6 133.3 277.6 116.9 289.2 104.5 306.6 104.5 311.3 104.5 315.9 105.3 320.2 107.3L318 114.8C314.5 113 310.5 112.2 306.4 112.2 294 112.2 287.3 121.5 287.3 132.7 287.3 145.3 295.4 153 306.2 153 310.3 153 314.5 152.2 318.2 150.4L320.2 157.7Z" id="path34" fill="#00AAF2"/><path d="M345.2 89.9 345.2 105.5 359.2 105.5 359.2 112.8 345.2 112.8 345.2 142C345.2 148.7 347 152.6 352.5 152.6 354.3 152.6 356.4 152.4 358.2 152L358.6 159.3C356.8 160.3 353.7 160.7 349.7 160.7 345.6 160.9 341.8 159.3 339.1 156.6 336.5 153.4 335.4 148.9 335.4 142.4L335.4 112.8 326.9 112.8 326.9 105.5 335.2 105.5 335.2 92.3 345.2 89.9Z" id="path36" fill="#00AAF2"/><path d="M381.3 90.3C381.3 93.5 378.9 96.2 375.6 96.4L375.2 96.4C372 96.4 369.3 94 369.3 90.9L369.3 90.5C369.1 87.3 371.7 84.4 375 84.4L375.4 84.4C378.7 84 381.3 86.8 381.3 90.3 381.3 90.1 381.3 90.1 381.3 90.3ZM370.4 159.7 370.4 105.5 380.1 105.5 380.1 159.5 370.4 159.5 370.4 159.7Z" id="path38" fill="#00AAF2"/><path d="M400.4 105.5 411 136C412.8 140.9 414.2 145.5 415.5 150L415.9 150C417.1 145.5 418.7 140.9 420.4 136L431 105.5 441.4 105.5 420.1 159.5 410.6 159.5 390.1 105.5 400.4 105.5Z" id="path40" fill="#00AAF2"/><path d="M454.8 134.3C455 147.7 463.5 153.2 473.3 153.2 480.4 153.2 484.9 152 488.3 150.4L489.9 157.5C484.2 159.9 478.1 161.2 471.8 161 455.2 161 445.2 149.8 445.2 133.6 445.2 117.2 454.7 104.4 470.8 104.4 488.5 104.4 493.1 119.8 493.1 129.8 493.1 131.4 492.9 132.8 492.7 134.5L454.8 134.5 454.8 134.3ZM483.6 127.2C483.8 121.1 481 111.4 470 111.4 460.1 111.4 455.6 120.5 454.8 127.2L483.6 127.2Z" id="path42" fill="#00AAF2"/><path d="M529.3 85.2C536.2 84.2 543.1 83.6 550.2 83.6 564.2 83.6 574.2 86.8 580.7 93.1 587.4 99.2 591.3 108.1 591.3 120.1 591.3 132.5 587.4 142.4 580.3 149.5 573.2 156.6 561.6 160.5 547 160.5 541.1 160.5 535 160.3 529.1 159.5L529.3 85.2ZM539.3 152C542.5 152.4 545.8 152.6 549 152.6 569.9 152.6 581.3 141 581.3 120.5 581.5 102.6 571.4 91.5 550.8 91.5 546.9 91.5 543.1 91.9 539.2 92.5L539.3 152Z" id="path44" fill="#00AAF2"/><path d="M615 90.3C615 93.5 612.6 96.2 609.3 96.4L608.9 96.4C605.7 96.4 603 94 603 90.9L603 90.5C602.8 87.3 605.4 84.4 608.7 84.4L609.1 84.4C612.2 84 615 86.8 615 90.3 615 90.1 615 90.1 615 90.3ZM603.9 159.7 603.9 105.5 613.6 105.5 613.6 159.5 603.9 159.5 603.9 159.7Z" id="path46" fill="#00AAF2"/><path d="M630 122.4C630 116.1 629.8 110.6 629.6 105.5L638.3 105.5 638.7 116.1 639.1 116.1C641.7 108.8 647.8 104.3 654.3 104.3 655.3 104.3 656.1 104.3 656.9 104.5L656.9 113.8C655.9 113.6 654.9 113.4 653.7 113.4 646.6 113.4 641.9 118.7 640.5 126 640.1 127.4 640.1 129 640.1 130.5L640.1 159.5 630.4 159.5 630 122.4Z" id="path48" fill="#00AAF2"/><path d="M671.1 134.3C671.3 147.7 679.8 153.2 689.6 153.2 696.7 153.2 701.2 152 704.6 150.4L706.2 157.5C700.5 159.9 694.4 161.2 688.1 161 671.5 161 661.5 149.8 661.5 133.6 661.5 117.2 671 104.4 687.1 104.4 704.8 104.4 709.4 119.8 709.4 129.8 709.4 131.4 709.2 132.8 709 134.5L671.1 134.5 671.1 134.3ZM699.9 127.2C700.1 121.1 697.3 111.4 686.3 111.4 676.4 111.4 671.9 120.5 671.1 127.2L699.9 127.2Z" id="path50" fill="#00AAF2"/><path d="M760.2 157.7C755.3 159.9 750 160.9 744.6 160.9 728.4 160.9 717.6 149.7 717.6 133.3 717.6 116.9 729.2 104.5 746.6 104.5 751.3 104.5 755.9 105.3 760.2 107.3L758 114.8C754.5 113 750.5 112.2 746.4 112.2 734 112.2 727.3 121.5 727.3 132.7 727.3 145.3 735.4 153 746.2 153 750.3 153 754.5 152.2 758.2 150.4L760.2 157.7Z" id="path52" fill="#00AAF2"/><path d="M785.2 89.9 785.2 105.5 799.2 105.5 799.2 112.8 785.2 112.8 785.2 142C785.2 148.7 787 152.6 792.5 152.6 794.3 152.6 796.4 152.4 798.2 152L798.6 159.3C796.8 160.3 793.7 160.7 789.7 160.7 785.6 160.9 781.8 159.3 779.1 156.6 776.5 153.4 775.4 148.9 775.4 142.4L775.4 112.8 767.1 112.8 767.1 105.5 775.4 105.5 775.4 92.3 785.2 89.9Z" id="path54" fill="#00AAF2"/><path d="M858.7 132.5C858.7 152.4 844.1 160.9 831.5 160.9 817.3 160.9 805.7 150.3 805.7 132.7 805.7 114.6 818.1 104.3 832.7 104.3 847.9 104.3 858.7 115.1 858.7 132.5ZM815.8 132.7C815.8 143.7 821.3 153.4 832.2 153.4 843 153.4 848.8 143.7 848.8 132.5 848.8 123 844.3 111.4 832.2 111.4 820.1 111.4 815.8 123 815.8 132.7Z" id="path56" fill="#00AAF2"/><path d="M871.1 122.4C871.1 116.1 870.9 110.6 870.7 105.5L879.4 105.5 879.8 116.1 880.2 116.1C882.8 108.8 888.9 104.3 895.4 104.3 896.4 104.3 897.2 104.3 898 104.5L898 113.8C897 113.6 896 113.4 894.8 113.4 887.7 113.4 883 118.7 881.6 126 881.2 127.4 881.2 129 881.2 130.5L881.2 159.5 871.5 159.5 871.1 122.4Z" id="path58" fill="#00AAF2"/><path d="M914.1 105.5 925.9 137.4C927.1 140.9 928.5 145.1 929.4 148.6L929.6 148.6C930.6 145.4 931.6 141.3 933.1 137.4L943.9 105.5 954.3 105.5 939.5 144.1C932.4 162.6 927.7 172.3 921 178.2 917.5 181.2 913.5 183.3 909 184.5L906.6 176.2C909.8 175.2 912.7 173.6 915.3 171.3 918.8 168.3 921.6 164.6 923.4 160.3 923.8 159.5 924.2 158.7 924.2 157.9 924.2 156.9 923.8 156.1 923.4 155.3L903.5 105.6 914.1 105.6Z" id="path60" fill="#00AAF2"/></g></g></svg>